<svg xmlns="http://www.w3.org/2000/svg" viewBox="0 0 24 24" fill="black">
  <path d="M12.152 6.896c-.948 0-2.415-1.078-3.96-1.04-2.04.027-3.91 1.183-4.961 3.014-2.117 3.675-.546 9.103 1.519 12.09 1.013 1.454 2.208 3.126 3.822 3.073 1.53-.052 2.104-.981 3.962-.981s2.378.981 3.962.928c1.625-.052 2.67-1.48 3.655-2.928 1.155-1.688 1.636-3.326 1.662-3.415-.039-.013-3.182-1.22-3.22-4.857-.026-3.04 2.48-4.494 2.597-4.559-1.43-2.09-3.604-2.324-4.335-2.379-1.921-.168-3.791 1.054-4.698 1.054zm2.842-4.312c.792-.96 1.337-2.285 1.181-3.584-1.117.04-2.518.739-3.336 1.686-.649.743-1.299 2.08-1.117 3.367 1.261.091 2.48-.65 3.272-1.469z"/>
</svg>
