<svg xmlns="http://www.w3.org/2000/svg" viewBox="0 0 128 128" fill="none">
  <defs>
    <filter id="nodeGlow" x="-50%" y="-50%" width="200%" height="200%">
      <feGaussianBlur stdDeviation="3" result="blur"/>
      <feMerge>
        <feMergeNode in="blur"/>
        <feMergeNode in="SourceGraphic"/>
      </feMerge>
    </filter>
  </defs>
  <!-- Hexagon perimeter -->
  <line x1="64" y1="26" x2="97" y2="45" stroke="#78D64B" stroke-width="1.5" stroke-opacity="0.35"/>
  <line x1="97" y1="45" x2="97" y2="83" stroke="#78D64B" stroke-width="1.5" stroke-opacity="0.35"/>
  <line x1="97" y1="83" x2="64" y2="102" stroke="#78D64B" stroke-width="1.5" stroke-opacity="0.35"/>
  <line x1="64" y1="102" x2="31" y2="83" stroke="#78D64B" stroke-width="1.5" stroke-opacity="0.35"/>
  <line x1="31" y1="83" x2="31" y2="45" stroke="#78D64B" stroke-width="1.5" stroke-opacity="0.35"/>
  <line x1="31" y1="45" x2="64" y2="26" stroke="#78D64B" stroke-width="1.5" stroke-opacity="0.35"/>
  <!-- Center-to-outer spokes -->
  <line x1="64" y1="64" x2="64" y2="26" stroke="#78D64B" stroke-width="2" stroke-opacity="0.5"/>
  <line x1="64" y1="64" x2="97" y2="45" stroke="#78D64B" stroke-width="2" stroke-opacity="0.5"/>
  <line x1="64" y1="64" x2="97" y2="83" stroke="#78D64B" stroke-width="2" stroke-opacity="0.5"/>
  <line x1="64" y1="64" x2="64" y2="102" stroke="#78D64B" stroke-width="2" stroke-opacity="0.5"/>
  <line x1="64" y1="64" x2="31" y2="83" stroke="#78D64B" stroke-width="2" stroke-opacity="0.5"/>
  <line x1="64" y1="64" x2="31" y2="45" stroke="#78D64B" stroke-width="2" stroke-opacity="0.5"/>
  <!-- Cross-connections -->
  <line x1="64" y1="26" x2="97" y2="83" stroke="#78D64B" stroke-width="1" stroke-opacity="0.15"/>
  <line x1="64" y1="26" x2="31" y2="83" stroke="#78D64B" stroke-width="1" stroke-opacity="0.15"/>
  <line x1="97" y1="45" x2="31" y2="83" stroke="#78D64B" stroke-width="1" stroke-opacity="0.15"/>
  <line x1="31" y1="45" x2="97" y2="83" stroke="#78D64B" stroke-width="1" stroke-opacity="0.15"/>
  <!-- Ambient glow -->
  <circle cx="64" cy="64" r="22" fill="#78D64B" fill-opacity="0.06"/>
  <circle cx="64" cy="64" r="15" fill="#78D64B" fill-opacity="0.10"/>
  <!-- Outer hex nodes -->
  <circle cx="64" cy="26" r="7" fill="#78D64B" filter="url(#nodeGlow)"/>
  <circle cx="97" cy="45" r="7" fill="#78D64B" filter="url(#nodeGlow)"/>
  <circle cx="97" cy="83" r="7" fill="#78D64B" filter="url(#nodeGlow)"/>
  <circle cx="64" cy="102" r="7" fill="#78D64B" filter="url(#nodeGlow)"/>
  <circle cx="31" cy="83" r="7" fill="#78D64B" filter="url(#nodeGlow)"/>
  <circle cx="31" cy="45" r="7" fill="#78D64B" filter="url(#nodeGlow)"/>
  <!-- Center node -->
  <circle cx="64" cy="64" r="10" fill="#78D64B" filter="url(#nodeGlow)"/>
  <!-- Micro accent dots -->
  <circle cx="64" cy="45" r="2" fill="#78D64B" fill-opacity="0.4"/>
  <circle cx="80.5" cy="54.5" r="2" fill="#78D64B" fill-opacity="0.4"/>
  <circle cx="80.5" cy="73.5" r="2" fill="#78D64B" fill-opacity="0.4"/>
  <circle cx="64" cy="83" r="2" fill="#78D64B" fill-opacity="0.4"/>
  <circle cx="47.5" cy="73.5" r="2" fill="#78D64B" fill-opacity="0.4"/>
  <circle cx="47.5" cy="54.5" r="2" fill="#78D64B" fill-opacity="0.4"/>
</svg>
