<svg xmlns="http://www.w3.org/2000/svg" viewBox="0 0 24 24" fill="none">
  <path d="M11.571 11.513H0a5.218 5.218 0 0 0 5.232 5.215h2.13v2.057A5.215 5.215 0 0 0 12.575 24V12.518a1.005 1.005 0 0 0-1.005-1.005z" fill="#2684FF"/>
  <path d="M11.571 11.513H0a5.218 5.218 0 0 0 5.232 5.215h2.13v2.057A5.215 5.215 0 0 0 12.575 24V12.518a1.005 1.005 0 0 0-1.005-1.005z" fill="url(#jira1)" fill-opacity="0.3"/>
  <path d="M17.364 5.756H5.792a5.218 5.218 0 0 0 5.233 5.214h2.129v2.058a5.216 5.216 0 0 0 5.214 5.214V6.761a1.005 1.005 0 0 0-1.004-1.005z" fill="#2684FF"/>
  <path d="M23.157 0H11.585a5.217 5.217 0 0 0 5.232 5.214h2.13v2.058A5.216 5.216 0 0 0 24.16 12.486V1.005A1.005 1.005 0 0 0 23.157 0z" fill="#2684FF"/>
  <defs>
    <linearGradient id="jira1" x1="12.146" y1="12.132" x2="6.934" y2="17.694" gradientUnits="userSpaceOnUse">
      <stop stop-color="#0052CC" offset="0.18"/>
      <stop stop-color="#2684FF" offset="1"/>
    </linearGradient>
  </defs>
</svg>
