<svg xmlns="http://www.w3.org/2000/svg" viewBox="0 0 24 24" fill="white">
  <path d="M4.459 4.208c.746.606 1.026.56 2.428.466l13.215-.793c.28 0 .047-.28-.046-.326L18.1 2.074c-.42-.326-.98-.7-2.055-.607L3.01 2.539c-.466.046-.56.28-.373.466l1.822 1.203zm.793 3.035v13.907c0 .746.373 1.026 1.213.98l14.523-.84c.84-.046.933-.56.933-1.166V6.336c0-.606-.233-.933-.746-.886l-15.177.886c-.56.047-.746.327-.746.887zm14.337.56c.093.42 0 .84-.42.887l-.7.14v10.264c-.607.327-1.166.513-1.632.513-.746 0-.933-.233-1.492-.933l-4.572-7.186v6.952l1.446.327s0 .84-1.166.84l-3.219.186c-.093-.186 0-.653.327-.746l.84-.233V9.854L7.821 9.76c-.093-.42.14-1.026.793-1.073l3.453-.233 4.759 7.278v-6.44l-1.213-.14c-.093-.513.28-.886.746-.933l3.23-.186zM2.31 1.073L15.833.04c1.632-.14 2.054.047 3.08.747l4.247 2.986c.7.513.933.653.933 1.213v16.706c0 1.073-.373 1.7-1.726 1.793L6.604 24.3c-1.006.047-1.492-.093-2.052-.793l-3.267-4.247c-.606-.84-.886-1.446-.886-2.146V2.725c0-.84.373-1.559 1.912-1.652z" fill-rule="evenodd"/>
</svg>
