<svg xmlns="http://www.w3.org/2000/svg" viewBox="0 0 24 24" fill="white">
  <path d="M23.954 4.569c-.885.39-1.83.654-2.825.775 1.014-.611 1.794-1.574 2.163-2.723-.949.555-2.005.959-3.127 1.184-.897-.959-2.178-1.559-3.594-1.559-2.717 0-4.92 2.203-4.92 4.917 0 .39.045.765.127 1.124C7.691 8.094 4.066 6.13 1.64 3.161c-.427.722-.666 1.561-.666 2.475 0 1.708.87 3.216 2.188 4.099-.807-.026-1.566-.248-2.228-.616v.061c0 2.385 1.693 4.374 3.946 4.827-.413.111-.849.171-1.296.171-.317 0-.626-.03-.927-.086.627 1.956 2.444 3.379 4.6 3.419-1.68 1.318-3.808 2.105-6.102 2.105-.396 0-.787-.023-1.17-.067 2.189 1.394 4.768 2.209 7.557 2.209 9.054 0 14.002-7.496 14.002-13.986 0-.21 0-.423-.015-.634.961-.689 1.8-1.56 2.46-2.548z"/>
</svg>
